<?xml version="1.0" encoding="UTF-8"?>
<!DOCTYPE svg PUBLIC "-//W3C//DTD SVG 1.1//EN" "http://www.w3.org/Graphics/SVG/1.1/DTD/svg11.dtd">
<svg xmlns="http://www.w3.org/2000/svg" version="1.1" width="64px" height="64px" style="shape-rendering:geometricPrecision; text-rendering:geometricPrecision; image-rendering:optimizeQuality; fill-rule:evenodd; clip-rule:evenodd" xmlns:xlink="http://www.w3.org/1999/xlink">
<g><path style="opacity:1" fill="#7edefa" d="M 26.5,5.5 C 30.1667,5.5 33.8333,5.5 37.5,5.5C 37.5,9.16667 37.5,12.8333 37.5,16.5C 35.1667,16.5 32.8333,16.5 30.5,16.5C 30.67,17.8221 30.3366,18.9887 29.5,20C 27.1902,20.4966 24.8568,20.6633 22.5,20.5C 24.2287,16.7057 22.8954,14.8724 18.5,15C 17.1667,13.6667 17.1667,12.3333 18.5,11C 21.1667,10.6667 23.8333,10.3333 26.5,10C 27.7279,8.50978 27.7279,7.00978 26.5,5.5 Z"/></g>
<g><path style="opacity:0.952" fill="#fef4dd" d="M 42.5,9.5 C 47.8437,9.33398 53.1771,9.50065 58.5,10C 59.5762,11.7261 59.7429,13.5594 59,15.5C 56.2445,16.0702 53.7445,17.0702 51.5,18.5C 48.1667,15.8333 45.1667,12.8333 42.5,9.5 Z"/></g>
<g><path style="opacity:1" fill="#afeafc" d="M 37.5,5.5 C 39.1667,6.83333 40.8333,8.16667 42.5,9.5C 45.1667,12.8333 48.1667,15.8333 51.5,18.5C 51.8333,19.1667 52.1667,19.8333 52.5,20.5C 47.737,20.7744 43.0704,20.441 38.5,19.5C 37.8902,18.609 37.5569,17.609 37.5,16.5C 37.5,12.8333 37.5,9.16667 37.5,5.5 Z"/></g>
<g><path style="opacity:0.948" fill="#fdf3dc" d="M 12.5,13.5 C 12.5,15.8333 12.5,18.1667 12.5,20.5C 6.84185,21.3206 5.17519,19.154 7.5,14C 9.13414,13.5065 10.8008,13.3398 12.5,13.5 Z"/></g>
<g><path style="opacity:1" fill="#8ae0f8" d="M 26.5,5.5 C 27.7279,7.00978 27.7279,8.50978 26.5,10C 23.8333,10.3333 21.1667,10.6667 18.5,11C 17.1667,12.3333 17.1667,13.6667 18.5,15C 22.8954,14.8724 24.2287,16.7057 22.5,20.5C 19.1667,20.5 15.8333,20.5 12.5,20.5C 12.5,18.1667 12.5,15.8333 12.5,13.5C 12.5,10.8333 12.5,8.16667 12.5,5.5C 17.1667,5.5 21.8333,5.5 26.5,5.5 Z"/></g>
<g><path style="opacity:1" fill="#6ed5f6" d="M 37.5,16.5 C 37.5569,17.609 37.8902,18.609 38.5,19.5C 37.2089,20.5417 37.2089,21.7083 38.5,23C 29.8397,23.4998 21.1731,23.6664 12.5,23.5C 12.5,22.5 12.5,21.5 12.5,20.5C 15.8333,20.5 19.1667,20.5 22.5,20.5C 24.8568,20.6633 27.1902,20.4966 29.5,20C 30.3366,18.9887 30.67,17.8221 30.5,16.5C 32.8333,16.5 35.1667,16.5 37.5,16.5 Z"/></g>
<g><path style="opacity:1" fill="#62d0f4" d="M 38.5,19.5 C 43.0704,20.441 47.737,20.7744 52.5,20.5C 52.5,21.1667 52.5,21.8333 52.5,22.5C 52.5,24.5 52.5,26.5 52.5,28.5C 39.1667,28.5 25.8333,28.5 12.5,28.5C 12.5,28.1667 12.5,27.8333 12.5,27.5C 12.5,26.1667 12.5,24.8333 12.5,23.5C 21.1731,23.6664 29.8397,23.4998 38.5,23C 37.2089,21.7083 37.2089,20.5417 38.5,19.5 Z"/></g>
<g><path style="opacity:0.956" fill="#fdf3da" d="M 52.5,22.5 C 54.3792,23.3414 56.3792,23.6747 58.5,23.5C 58.5,25.5 58.5,27.5 58.5,29.5C 55.8338,29.0658 54.6671,30.0658 55,32.5C 57.8263,33.2129 60.6596,33.8796 63.5,34.5C 63.5,36.1667 63.5,37.8333 63.5,39.5C 61.6208,40.3414 59.6208,40.6747 57.5,40.5C 55.8089,39.1363 54.1423,37.803 52.5,36.5C 52.5,35.5 52.5,34.5 52.5,33.5C 52.5,31.8333 52.5,30.1667 52.5,28.5C 52.5,26.5 52.5,24.5 52.5,22.5 Z"/></g>
<g><path style="opacity:0.766" fill="#fef5de" d="M -0.5,27.5 C 1.16667,27.5 2.83333,27.5 4.5,27.5C 4.5,29.1667 4.5,30.8333 4.5,32.5C 2.83333,32.5 1.16667,32.5 -0.5,32.5C -0.5,30.8333 -0.5,29.1667 -0.5,27.5 Z"/></g>
<g><path style="opacity:1" fill="#60cff3" d="M 12.5,28.5 C 25.8333,28.5 39.1667,28.5 52.5,28.5C 52.5,30.1667 52.5,31.8333 52.5,33.5C 39.1667,33.5 25.8333,33.5 12.5,33.5C 12.5,31.8333 12.5,30.1667 12.5,28.5 Z"/></g>
<g><path style="opacity:1" fill="#58caf1" d="M 12.5,33.5 C 25.8333,33.5 39.1667,33.5 52.5,33.5C 52.5,34.5 52.5,35.5 52.5,36.5C 46.469,34.331 41.469,35.6644 37.5,40.5C 29.2079,41.4071 20.8746,41.7404 12.5,41.5C 12.5,38.8333 12.5,36.1667 12.5,33.5 Z"/></g>
<g><path style="opacity:0.956" fill="#fef4dc" d="M 12.5,27.5 C 12.5,27.8333 12.5,28.1667 12.5,28.5C 12.5,30.1667 12.5,31.8333 12.5,33.5C 12.5,36.1667 12.5,38.8333 12.5,41.5C 12.5,45.5 12.5,49.5 12.5,53.5C 9.5,53.5 6.5,53.5 3.5,53.5C 3.5,51.5 3.5,49.5 3.5,47.5C 4.87344,47.6567 6.20677,47.49 7.5,47C 8.45057,46.2825 8.61723,45.4491 8,44.5C 5.28086,43.5562 2.44753,43.2229 -0.5,43.5C -0.5,41.5 -0.5,39.5 -0.5,37.5C 2.90899,37.7507 6.24232,37.4173 9.5,36.5C 10.6264,34.4937 9.95971,33.1604 7.5,32.5C 6.54811,30.9547 6.21478,29.288 6.5,27.5C 8.5,27.5 10.5,27.5 12.5,27.5 Z"/></g>
<g><path style="opacity:1" fill="#2f96e9" d="M 52.5,36.5 C 54.1423,37.803 55.8089,39.1363 57.5,40.5C 57.5,40.8333 57.5,41.1667 57.5,41.5C 55.901,41.2322 54.5676,41.5655 53.5,42.5C 48.7473,38.2557 44.414,38.589 40.5,43.5C 39.596,44.209 39.2627,45.209 39.5,46.5C 38.5,46.5 37.5,46.5 36.5,46.5C 36.5,47.8333 36.5,49.1667 36.5,50.5C 36.1667,50.5 35.8333,50.5 35.5,50.5C 35.1524,46.9153 35.819,43.582 37.5,40.5C 41.469,35.6644 46.469,34.331 52.5,36.5 Z"/></g>
<g><path style="opacity:1" fill="#d4f5fe" d="M 53.5,42.5 C 53.5,42.8333 53.5,43.1667 53.5,43.5C 53.5,45.1667 53.5,46.8333 53.5,48.5C 49.1667,48.5 44.8333,48.5 40.5,48.5C 40.5,46.8333 40.5,45.1667 40.5,43.5C 44.414,38.589 48.7473,38.2557 53.5,42.5 Z"/></g>
<g><path style="opacity:1" fill="#49c3ee" d="M 37.5,40.5 C 35.819,43.582 35.1524,46.9153 35.5,50.5C 28.2912,53.2538 20.6246,54.2538 12.5,53.5C 12.5,49.5 12.5,45.5 12.5,41.5C 20.8746,41.7404 29.2079,41.4071 37.5,40.5 Z"/></g>
<g><path style="opacity:1" fill="#b3ecfd" d="M 40.5,43.5 C 40.5,45.1667 40.5,46.8333 40.5,48.5C 44.8333,48.5 49.1667,48.5 53.5,48.5C 53.5,46.8333 53.5,45.1667 53.5,43.5C 55.311,51.5288 51.9777,55.0288 43.5,54C 40.9756,52.117 39.6423,49.617 39.5,46.5C 39.2627,45.209 39.596,44.209 40.5,43.5 Z"/></g>
<g><path style="opacity:0.983" fill="#3fbdeb" d="M 35.5,50.5 C 35.8333,50.5 36.1667,50.5 36.5,50.5C 36.8449,53.1979 38.1782,55.1979 40.5,56.5C 41.1667,56.5 41.5,56.8333 41.5,57.5C 31.8333,57.5 22.1667,57.5 12.5,57.5C 12.5,56.1667 12.5,54.8333 12.5,53.5C 20.6246,54.2538 28.2912,53.2538 35.5,50.5 Z"/></g>
<g><path style="opacity:0.977" fill="#2177e3" d="M 57.5,41.5 C 58.2458,46.1018 58.5792,50.7685 58.5,55.5C 52.31,55.1771 46.31,55.5104 40.5,56.5C 38.1782,55.1979 36.8449,53.1979 36.5,50.5C 36.5,49.1667 36.5,47.8333 36.5,46.5C 37.5,46.5 38.5,46.5 39.5,46.5C 39.6423,49.617 40.9756,52.117 43.5,54C 51.9777,55.0288 55.311,51.5288 53.5,43.5C 53.5,43.1667 53.5,42.8333 53.5,42.5C 54.5676,41.5655 55.901,41.2322 57.5,41.5 Z"/></g>
<g><path style="opacity:0.777" fill="#1662df" d="M 40.5,56.5 C 46.31,55.5104 52.31,55.1771 58.5,55.5C 60.1667,56.8333 61.8333,58.1667 63.5,59.5C 63.5,60.8333 63.5,62.1667 63.5,63.5C 62.1667,63.5 60.8333,63.5 59.5,63.5C 58.0401,61.5372 56.3734,59.7038 54.5,58C 50.0328,58.6607 45.6994,58.494 41.5,57.5C 41.5,56.8333 41.1667,56.5 40.5,56.5 Z"/></g>
</svg>
